<svg version="1.1" id="Layer_1" xmlns="http://www.w3.org/2000/svg" xmlns:xlink="http://www.w3.org/1999/xlink" x="0px" y="0px"
	 width="100%" viewBox="0 0 512 512" enable-background="new 0 0 512 512" xml:space="preserve">
<path fill="#000000" opacity="1.000000" stroke="none" 
	d="
M165.468658,513.000000 
	C163.932297,511.093231 161.815216,511.253265 160.158188,510.802856 
	C145.264084,506.754272 132.496338,499.029480 120.864166,489.036194 
	C107.183640,477.283142 96.597412,463.235229 88.554985,447.182159 
	C87.813873,445.702881 87.244934,444.135895 86.622536,442.598907 
	C84.943207,438.451843 85.377327,434.703003 89.062126,431.844360 
	C92.902641,428.864899 97.178810,428.643463 101.143402,431.310303 
	C109.880463,437.187378 118.969124,442.289520 129.173370,445.106934 
	C152.230392,451.473114 174.536285,450.322968 195.380661,437.627197 
	C202.175247,433.488739 208.449173,428.578857 213.127350,421.851776 
	C215.974915,417.757111 219.774231,415.442444 225.345306,415.542816 
	C243.337051,415.866943 261.345306,415.952423 279.332336,415.516357 
	C286.197876,415.349915 291.365265,416.964874 295.876770,422.331116 
	C303.213654,431.057953 312.007324,438.116547 322.735291,442.426056 
	C337.537476,448.372284 352.818390,449.935699 368.629608,447.859528 
	C386.131805,445.561340 402.639893,440.780273 417.543549,430.930023 
	C420.926147,428.694397 425.132507,428.532501 428.654175,431.627563 
	C432.543915,435.046021 433.611725,439.350525 431.297791,444.245941 
	C426.878693,453.595062 421.356720,462.373779 414.682495,470.192169 
	C401.973236,485.080231 387.128082,497.406891 369.065735,505.546143 
	C362.697876,508.415619 355.894104,509.906982 349.218811,512.723022 
	C333.979095,513.000000 318.958221,513.000000 303.205688,512.749878 
	C302.052521,512.236389 301.656006,511.799591 301.205811,511.734558 
	C285.087433,509.407715 270.115356,504.211609 257.145172,494.070801 
	C255.167313,492.524414 253.850876,492.924194 251.984207,494.425140 
	C241.904984,502.529266 230.528244,507.919281 217.815750,510.593658 
	C215.536575,511.073151 212.711502,510.666779 211.000000,513.000000 
	C195.979111,513.000000 180.958206,513.000000 165.468658,513.000000 
z"/>
<path fill="#000000" opacity="1.000000" stroke="none" 
	d="
M273.531342,1.000000 
	C290.084290,4.349011 305.217499,9.962971 318.313660,20.155945 
	C331.235535,30.213243 341.510071,42.511101 348.153198,57.543594 
	C349.650269,60.931313 351.505585,61.682308 354.880493,61.743458 
	C374.755951,62.103550 392.465424,68.558647 406.622437,82.633995 
	C417.542938,93.491470 424.260864,106.786583 426.461090,122.374092 
	C429.221771,141.931931 425.128998,159.674377 413.667114,175.621780 
	C408.235321,183.179184 401.714172,189.816818 393.377594,194.277969 
	C389.348602,196.434036 387.568787,199.229691 387.179077,204.050735 
	C386.073853,217.723068 384.159363,231.329071 382.618591,244.967407 
	C381.485504,254.997070 380.459900,265.038879 379.349121,275.071106 
	C377.674530,290.195557 376.036713,305.324677 374.230408,320.433533 
	C373.711914,324.770325 369.704498,328.045288 365.218658,328.310150 
	C363.724182,328.398346 362.220673,328.337738 360.721283,328.337769 
	C289.915253,328.340149 219.109222,328.341858 148.303192,328.343292 
	C137.113525,328.343506 134.728745,325.784119 133.612305,314.429871 
	C131.881149,296.824036 129.675125,279.265411 127.774666,261.675476 
	C125.997284,245.224854 124.393463,228.755463 122.623398,212.304001 
	C122.251633,208.848740 121.673950,205.430878 121.486397,201.938171 
	C121.332703,199.076065 119.814392,196.973053 117.022171,195.316391 
	C90.150879,179.373398 78.721710,154.911484 82.005997,124.697998 
	C85.646255,91.209839 109.349182,68.408035 141.294601,62.835358 
	C148.455353,61.586212 155.772934,61.301422 163.039261,62.638954 
	C166.200897,63.220924 167.798798,61.549217 169.042084,58.757034 
	C183.489700,26.310154 208.748032,7.775796 243.658783,1.156419 
	C253.687561,1.000000 263.375122,1.000000 273.531342,1.000000 
M148.226196,269.667175 
	C149.485443,281.042542 151.017044,292.397217 151.882385,303.802460 
	C152.280487,309.049408 154.686264,309.762634 159.221405,309.753815 
	C222.869034,309.630371 286.516968,309.671722 350.164856,309.671661 
	C351.164459,309.671661 352.164337,309.635315 353.163605,309.649231 
	C355.369781,309.679993 356.439850,308.707550 356.676544,306.408600 
	C357.594574,297.492737 358.679199,288.594208 359.650085,279.683594 
	C361.124207,266.154236 362.518890,252.616211 364.014679,239.089325 
	C365.528412,225.400375 367.419037,211.745377 368.575531,198.027527 
	C369.293304,189.514053 371.636963,183.560562 380.291809,179.280548 
	C402.280975,168.406464 411.974518,144.657364 406.917114,122.231354 
	C400.586029,94.157120 375.101257,77.552498 346.369598,82.098022 
	C340.827911,82.974754 336.986267,80.953209 334.678284,75.836617 
	C333.927979,74.173187 333.380646,72.417969 332.745758,70.702789 
	C318.294281,31.661919 274.618896,10.243901 235.131073,23.091518 
	C209.447327,31.447887 192.489578,48.853748 183.695129,74.290230 
	C180.332413,84.016281 177.263535,85.868179 167.276520,83.246552 
	C162.238953,81.924171 157.221542,81.243706 152.011078,81.265854 
	C117.062630,81.414429 91.770828,117.229012 103.399780,150.210815 
	C108.293953,164.091583 117.351669,174.292908 130.628586,180.626236 
	C134.880447,182.654434 138.638733,184.990036 139.218063,190.112152 
	C140.989944,205.778046 142.609512,221.461121 144.367371,237.128647 
	C145.551331,247.681107 146.869125,258.218536 148.226196,269.667175 
z"/>
<path fill="#000000" opacity="1.000000" stroke="none" 
	d="
M192.271423,361.385345 
	C200.384674,350.499481 221.351105,350.839050 229.355164,362.945435 
	C234.360565,370.516266 234.465912,382.439056 228.845840,390.117188 
	C223.897339,396.877747 213.661285,401.636536 202.113342,397.619751 
	C193.781219,394.721588 187.840607,386.397644 187.605103,377.062866 
	C187.462051,371.392273 188.471481,366.195770 192.271423,361.385345 
M211.504745,373.351318 
	C209.098465,372.190430 207.685684,373.471313 206.862930,375.488007 
	C206.184952,377.149811 207.306030,378.360046 208.623642,379.137909 
	C210.075089,379.994873 211.544937,379.626129 212.634689,378.390076 
	C214.148315,376.673248 213.675385,375.088318 211.504745,373.351318 
z"/>
<path fill="#000000" opacity="1.000000" stroke="none" 
	d="
M277.921753,386.639526 
	C274.489594,378.021271 274.778564,370.188812 279.877686,362.568207 
	C285.976379,353.453827 295.554352,352.248352 305.121338,354.260529 
	C314.521545,356.237671 320.884735,364.641663 321.334503,374.062195 
	C321.887024,385.635315 315.824158,395.008820 305.797791,398.082855 
	C294.900879,401.423798 285.006195,397.470276 277.921753,386.639526 
M301.354950,377.718933 
	C302.334839,375.475372 301.590912,373.896332 299.451233,372.902313 
	C298.011200,372.233307 296.860199,372.812714 296.013458,373.967712 
	C294.904175,375.480835 294.917664,377.119049 296.224365,378.459381 
	C297.757935,380.032379 299.421265,379.896912 301.354950,377.718933 
z"/>
<path fill="#000000" opacity="1.000000" stroke="none" 
	d="
M233.725830,48.545273 
	C239.087738,46.019665 244.300232,44.443981 249.919769,44.704742 
	C255.130798,44.946541 258.871185,48.422928 259.270081,53.303089 
	C259.649506,57.944839 256.199402,62.652836 251.192230,63.111111 
	C240.044327,64.131401 234.314621,70.056953 232.670486,81.006958 
	C231.663895,87.710960 227.518921,90.311951 221.437149,89.325806 
	C216.684631,88.555191 214.144226,84.546249 214.524033,78.356606 
	C215.343582,65.000610 221.610336,55.103279 233.725830,48.545273 
z"/>
<path fill="#000000" opacity="1.000000" stroke="none" 
	d="
M354.676514,101.589523 
	C358.211548,109.896690 355.066315,115.280487 346.490509,116.335930 
	C337.163666,117.483795 331.636932,122.941345 330.281830,132.341751 
	C329.259705,139.432205 325.776154,142.757324 319.739471,142.404587 
	C315.261505,142.142944 312.085144,139.033463 311.669922,134.504974 
	C309.920593,115.426231 327.351196,97.063095 346.563202,97.665192 
	C349.764099,97.765503 352.367554,98.849716 354.676514,101.589523 
z"/>
<path fill="#000000" opacity="1.000000" stroke="none" 
	d="
M155.621613,98.109123 
	C157.863892,97.894890 159.692291,97.650986 161.508301,97.722260 
	C166.956863,97.936127 170.851288,101.632217 171.096100,106.671135 
	C171.317062,111.219276 167.613708,115.377602 162.583282,116.229805 
	C150.219101,118.324425 146.413742,122.088173 144.346649,134.267044 
	C143.334793,140.228561 139.338318,143.143387 133.344238,142.291672 
	C128.721237,141.634766 125.342728,136.792618 125.834602,131.528717 
	C127.459534,114.138847 137.951324,102.240265 155.621613,98.109123 
z"/>
</svg>